<svg viewBox="0 0 368 368" xmlns="http://www.w3.org/2000/svg">
  <g id="favicon" fill="#ebb1fd">
    <path d="M344 0H24C10.77 0 0 10.77 0 24v320c0 13.23 10.77 24 24 24h320c13.23 0 24-10.77 24-24V24c0-13.23-10.77-24-24-24zm8 344c0 4.41-3.6 8-8 8H24c-4.4 0-8-3.59-8-8V24c0-4.4 3.6-8 8-8h320c4.4 0 8 3.6 8 8zm0 0"/>
    <path d="M216 64H104a8 8 0 00-8 8v224a8 8 0 008 8h112c30.88 0 56-25.13 56-56v-16c0-20.34-10.9-38.2-27.18-48A56.02 56.02 0 00272 136v-16c0-30.88-25.12-56-56-56zm40 168v16c0 22.05-17.95 40-40 40H112v-96h104c22.05 0 40 17.95 40 40zm0-96c0 22.05-17.95 40-40 40H112V80h104c22.05 0 40 17.95 40 40zm0 0"/>
  </g>
  <symbol viewBox="0 0 368 368" id="icon">
    <path d="M344 0H24C10.77 0 0 10.77 0 24v320c0 13.23 10.77 24 24 24h320c13.23 0 24-10.77 24-24V24c0-13.23-10.77-24-24-24zm8 344c0 4.41-3.6 8-8 8H24c-4.4 0-8-3.59-8-8V24c0-4.4 3.6-8 8-8h320c4.4 0 8 3.6 8 8zm0 0"/>
    <path d="M216 64H104a8 8 0 00-8 8v224a8 8 0 008 8h112c30.88 0 56-25.13 56-56v-16c0-20.34-10.9-38.2-27.18-48A56.02 56.02 0 00272 136v-16c0-30.88-25.12-56-56-56zm40 168v16c0 22.05-17.95 40-40 40H112v-96h104c22.05 0 40 17.95 40 40zm0-96c0 22.05-17.95 40-40 40H112V80h104c22.05 0 40 17.95 40 40zm0 0"/>
  </symbol>
</svg>
